<svg version="1.1" xmlns="http://www.w3.org/2000/svg" xmlns:xlink="http://www.w3.org/1999/xlink" x="0px" y="0px" viewBox="0 0 24 24" style="enable-background:new 0 0 24 24;" xml:space="preserve">
	<g transform="translate(-700.000000, -560.000000)">
		<path fill="#3E75C3" d="M712,560.2c-6.6,0-12,5.4-12,12c0,5.3,3.4,9.8,8.2,11.4c0.6,0.1,0.8-0.3,0.8-0.6c0-0.3,0-1,0-2
			c-3.3,0.7-4-1.6-4-1.6c-0.5-1.4-1.3-1.8-1.3-1.8c-1.1-0.7,0.1-0.7,0.1-0.7c1.2,0.1,1.8,1.2,1.8,1.2c1.1,1.8,2.8,1.3,3.5,1
			c0.1-0.8,0.4-1.3,0.8-1.6c-2.7-0.3-5.5-1.3-5.5-6c0-1.3,0.5-2.4,1.2-3.2c-0.1-0.3-0.5-1.5,0.1-3.2c0,0,1-0.3,3.3,1.2
			c1-0.3,2-0.4,3-0.4c1,0,2,0.1,3,0.4c2.3-1.6,3.3-1.2,3.3-1.2c0.7,1.7,0.2,2.9,0.1,3.2c0.8,0.8,1.2,1.9,1.2,3.2
			c0,4.6-2.8,5.6-5.5,5.9c0.4,0.4,0.8,1.1,0.8,2.2c0,1.6,0,2.9,0,3.3c0,0.3,0.2,0.7,0.8,0.6c4.8-1.6,8.2-6.1,8.2-11.4
			C724,565.6,718.6,560.2,712,560.2"/>
	</g>
</svg>
