<?xml version="1.0" encoding="utf-8"?>
<svg version="1.1" id="Laag_1" xmlns="http://www.w3.org/2000/svg" xmlns:xlink="http://www.w3.org/1999/xlink" x="0px" y="0px"
   viewBox="0 0 22 20" style="enable-background:new 0 0 22 20;" xml:space="preserve">
<path style="fill: #007EBB;" d="M22,20h-4.9v-7c0-1.8-0.8-3.1-2.4-3.1c-1.3,0-2,0.8-2.3,1.7c-0.1,0.3-0.1,0.7-0.1,1.1V20H7.5
  c0,0,0.1-12.5,0-13.6h4.8v2.1c0.3-0.9,1.8-2.3,4.3-2.3c3,0,5.4,2,5.4,6.2V20L22,20z M2.6,4.7L2.6,4.7C1,4.7,0,3.7,0,2.4
  C0,1,1,0,2.6,0c1.6,0,2.6,1,2.6,2.4C5.2,3.7,4.2,4.7,2.6,4.7L2.6,4.7L2.6,4.7z M0.6,6.4h4.3V20H0.6V6.4L0.6,6.4z"/>
</svg>
