<?xml version="1.0" encoding="utf-8"?>
<svg version="1.1" id="Laag_1" xmlns="http://www.w3.org/2000/svg" xmlns:xlink="http://www.w3.org/1999/xlink" x="0px" y="0px"
   viewBox="0 0 22 18.3" style="enable-background:new 0 0 22 18.3;" xml:space="preserve">
<path style="fill: #00AAEC;" d="M22,2.2c-0.8,0.4-1.7,0.6-2.6,0.7c0.9-0.6,1.6-1.5,2-2.6c-0.9,0.5-1.8,0.9-2.9,1.1
  c-0.8-0.9-2-1.5-3.3-1.5c-2.5,0-4.5,2.1-4.5,4.6c0,0.4,0,0.7,0.1,1.1c-3.8-0.2-7.1-2-9.3-4.8C1.1,1.5,0.9,2.3,0.9,3.2
  c0,1.6,0.8,3,2,3.9c-0.7,0-1.4-0.2-2-0.6v0.1c0,2.2,1.6,4.1,3.6,4.5c-0.4,0.1-0.8,0.2-1.2,0.2c-0.3,0-0.6,0-0.8-0.1
  C3,13,4.7,14.3,6.7,14.3c-1.5,1.2-3.5,2-5.6,2c-0.4,0-0.7,0-1.1-0.1c2,1.3,4.4,2.1,6.9,2.1c8.3,0,12.8-7.1,12.8-13.2
  c0-0.2,0-0.4,0-0.6C20.6,3.9,21.4,3.1,22,2.2"/>
</svg>
